<?xml version="1.0" standalone="no"?>
<!DOCTYPE svg PUBLIC "-//W3C//DTD SVG 20010904//EN"
 "http://www.w3.org/TR/2001/REC-SVG-20010904/DTD/svg10.dtd">
<svg version="1.0" xmlns="http://www.w3.org/2000/svg"
 width="194.000000pt" height="194.000000pt" viewBox="0 0 194.000000 194.000000"
 preserveAspectRatio="xMidYMid meet">
<metadata>
Created by potrace 1.14, written by Peter Selinger 2001-2017
</metadata>
<g transform="translate(0.000000,194.000000) scale(0.100000,-0.100000)"
fill="#000000" stroke="none">
<path d="M815 1890 c-223 -39 -395 -127 -547 -280 -91 -92 -154 -186 -201
-301 -54 -132 -62 -177 -61 -344 1 -175 18 -255 83 -385 57 -113 93 -163 180
-251 126 -126 274 -211 451 -260 73 -20 108 -23 245 -24 136 0 174 4 250 23
178 46 328 133 460 266 188 189 275 416 262 686 -11 230 -98 422 -266 591
-128 127 -279 214 -451 259 -95 25 -316 36 -405 20z"/>
</g>
</svg>
